REM DIRINDEX 1\2\4\8,1\2\4\9,1\2\4\10,1\2\5\11,1\2\5\12,1\2\5\13,1\2\5\14,1\2\5\15,1\3\6\16,1\3\6\17,1\3\6\18,1\3\7\19,1\3\7\20,1\3\7\21,1\3\7\22,1\3\7\23
REM DIRNAME "folder01","folder02","folder03","folder04","folder05","folder06","folder07","folder08","folder09","folder10","folder11","folder12","folder13","folder14","folder15","folder16","folder17","folder18","folder19","folder20","folder21","folder22","folder23"
TITLE ""
FILE "LR_black_phrase_C09.mp3" MP3
  TRACK 01 AUDIO
    TITLE "0:"
    INDEX 01 00:00:00
  TRACK 02 AUDIO
    TITLE "19:cjc171_14801"
    INDEX 01 00:00:14
  TRACK 03 AUDIO
    TITLE "0:"
    INDEX 01 00:01:49
  TRACK 04 AUDIO
    TITLE "20:cjc171_14802"
    INDEX 01 00:02:11
  TRACK 05 AUDIO
    TITLE "0:"
    INDEX 01 00:03:50
  TRACK 06 AUDIO
    TITLE "21:cjc171_14803"
    INDEX 01 00:04:49
  TRACK 07 AUDIO
    TITLE "0:"
    INDEX 01 00:06:15
  TRACK 08 AUDIO
    TITLE "22:cjc171_14804"
    INDEX 01 00:06:52
  TRACK 09 AUDIO
    TITLE "0:"
    INDEX 01 00:08:57
  TRACK 10 AUDIO
    TITLE "23:cjc171_14805"
    INDEX 01 00:09:13
  TRACK 11 AUDIO
    TITLE "0:"
    INDEX 01 00:11:18
  TRACK 12 AUDIO
    TITLE "19:cjc171_14806"
    INDEX 01 00:12:21
  TRACK 13 AUDIO
    TITLE "0:"
    INDEX 01 00:13:46
  TRACK 14 AUDIO
    TITLE "20:cjc171_14807"
    INDEX 01 00:14:12
  TRACK 15 AUDIO
    TITLE "0:"
    INDEX 01 00:15:33
  TRACK 16 AUDIO
    TITLE "21:cjc171_14808"
    INDEX 01 00:16:35
  TRACK 17 AUDIO
    TITLE "0:"
    INDEX 01 00:17:54
  TRACK 18 AUDIO
    TITLE "22:cjc171_14809"
    INDEX 01 00:18:18
  TRACK 19 AUDIO
    TITLE "0:"
    INDEX 01 00:20:21
  TRACK 20 AUDIO
    TITLE "23:cjc171_14810"
    INDEX 01 00:20:50
  TRACK 21 AUDIO
    TITLE "0:"
    INDEX 01 00:22:53
  TRACK 22 AUDIO
    TITLE "19:cjc171_14811"
    INDEX 01 00:23:54
  TRACK 23 AUDIO
    TITLE "0:"
    INDEX 01 00:25:26
  TRACK 24 AUDIO
    TITLE "20:cjc171_14812"
    INDEX 01 00:25:59
  TRACK 25 AUDIO
    TITLE "0:"
    INDEX 01 00:26:59
  TRACK 26 AUDIO
    TITLE "21:cjc171_14813"
    INDEX 01 00:27:58
  TRACK 27 AUDIO
    TITLE "0:"
    INDEX 01 00:30:23
  TRACK 28 AUDIO
    TITLE "22:cjc171_14814"
    INDEX 01 00:30:56
  TRACK 29 AUDIO
    TITLE "0:"
    INDEX 01 00:33:33
  TRACK 30 AUDIO
    TITLE "23:cjc171_14815"
    INDEX 01 00:33:59
  TRACK 31 AUDIO
    TITLE "0:"
    INDEX 01 00:36:37
  TRACK 32 AUDIO
    TITLE "19:cjc171_14816"
    INDEX 01 00:37:37
  TRACK 33 AUDIO
    TITLE "0:"
    INDEX 01 00:38:58
  TRACK 34 AUDIO
    TITLE "20:cjc171_14817"
    INDEX 01 00:39:20
  TRACK 35 AUDIO
    TITLE "0:"
    INDEX 01 00:41:70
  TRACK 36 AUDIO
    TITLE "21:cjc171_14818"
    INDEX 01 00:42:69
  TRACK 37 AUDIO
    TITLE "0:"
    INDEX 01 00:46:14
  TRACK 38 AUDIO
    TITLE "22:cjc171_14819"
    INDEX 01 00:46:50
  TRACK 39 AUDIO
    TITLE "0:"
    INDEX 01 00:49:36
  TRACK 40 AUDIO
    TITLE "23:cjc171_14820"
    INDEX 01 00:49:58
  TRACK 41 AUDIO
    TITLE "0:"
    INDEX 01 00:52:40
  TRACK 42 AUDIO
    TITLE "19:cjc171_14821"
    INDEX 01 00:53:44
  TRACK 43 AUDIO
    TITLE "0:"
    INDEX 01 00:54:65
  TRACK 44 AUDIO
    TITLE "20:cjc171_14822"
    INDEX 01 00:55:33
  TRACK 45 AUDIO
    TITLE "0:"
    INDEX 01 00:56:62
  TRACK 46 AUDIO
    TITLE "21:cjc171_14823"
    INDEX 01 00:57:59
  TRACK 47 AUDIO
    TITLE "0:"
    INDEX 01 01:00:32
  TRACK 48 AUDIO
    TITLE "22:cjc171_14824"
    INDEX 01 01:00:71
  TRACK 49 AUDIO
    TITLE "0:"
    INDEX 01 01:03:30
  TRACK 50 AUDIO
    TITLE "23:cjc171_14825"
    INDEX 01 01:03:60
  TRACK 51 AUDIO
    TITLE "0:"
    INDEX 01 01:06:19
  TRACK 52 AUDIO
    TITLE "19:cjc171_14826"
    INDEX 01 01:07:22
  TRACK 53 AUDIO
    TITLE "0:"
    INDEX 01 01:08:37
  TRACK 54 AUDIO
    TITLE "20:cjc171_14827"
    INDEX 01 01:09:02
  TRACK 55 AUDIO
    TITLE "0:"
    INDEX 01 01:11:34
  TRACK 56 AUDIO
    TITLE "21:cjc171_14828"
    INDEX 01 01:12:37
  TRACK 57 AUDIO
    TITLE "0:"
    INDEX 01 01:14:30
  TRACK 58 AUDIO
    TITLE "22:cjc171_14829"
    INDEX 01 01:14:69
  TRACK 59 AUDIO
    TITLE "0:"
    INDEX 01 01:17:05
  TRACK 60 AUDIO
    TITLE "23:cjc171_14830"
    INDEX 01 01:17:34
  TRACK 61 AUDIO
    TITLE "0:"
    INDEX 01 01:19:45
  TRACK 62 AUDIO
    TITLE "19:cjc171_14831"
    INDEX 01 01:20:45
  TRACK 63 AUDIO
    TITLE "0:"
    INDEX 01 01:21:71
  TRACK 64 AUDIO
    TITLE "20:cjc171_14832"
    INDEX 01 01:22:30
  TRACK 65 AUDIO
    TITLE "0:"
    INDEX 01 01:24:17
  TRACK 66 AUDIO
    TITLE "21:cjc171_14833"
    INDEX 01 01:25:16
  TRACK 67 AUDIO
    TITLE "0:"
    INDEX 01 01:28:09
  TRACK 68 AUDIO
    TITLE "22:cjc171_14834"
    INDEX 01 01:28:42
  TRACK 69 AUDIO
    TITLE "0:"
    INDEX 01 01:31:25
  TRACK 70 AUDIO
    TITLE "23:cjc171_14835"
    INDEX 01 01:31:44
  TRACK 71 AUDIO
    TITLE "0:"
    INDEX 01 01:34:27
  TRACK 72 AUDIO
    TITLE "19:cjc171_14836"
    INDEX 01 01:35:23
  TRACK 73 AUDIO
    TITLE "0:"
    INDEX 01 01:36:48
  TRACK 74 AUDIO
    TITLE "20:cjc171_14837"
    INDEX 01 01:37:10
  TRACK 75 AUDIO
    TITLE "0:"
    INDEX 01 01:39:64
  TRACK 76 AUDIO
    TITLE "21:cjc171_14838"
    INDEX 01 01:40:63
  TRACK 77 AUDIO
    TITLE "0:"
    INDEX 01 01:43:12
  TRACK 78 AUDIO
    TITLE "22:cjc171_14839"
    INDEX 01 01:43:48
  TRACK 79 AUDIO
    TITLE "0:"
    INDEX 01 01:45:52
  TRACK 80 AUDIO
    TITLE "23:cjc171_14840"
    INDEX 01 01:45:72
  TRACK 81 AUDIO
    TITLE "0:"
    INDEX 01 01:48:02
  TRACK 82 AUDIO
    TITLE "19:cjc171_14841"
    INDEX 01 01:49:01
  TRACK 83 AUDIO
    TITLE "0:"
    INDEX 01 01:50:14
  TRACK 84 AUDIO
    TITLE "20:cjc171_14842"
    INDEX 01 01:50:59
  TRACK 85 AUDIO
    TITLE "0:"
    INDEX 01 01:53:50
  TRACK 86 AUDIO
    TITLE "21:cjc171_14843"
    INDEX 01 01:54:49
  TRACK 87 AUDIO
    TITLE "0:"
    INDEX 01 01:56:52
  TRACK 88 AUDIO
    TITLE "22:cjc171_14844"
    INDEX 01 01:57:16
  TRACK 89 AUDIO
    TITLE "0:"
    INDEX 01 01:58:71
  TRACK 90 AUDIO
    TITLE "23:cjc171_14845"
    INDEX 01 01:59:25
  TRACK 91 AUDIO
    TITLE "0:"
    INDEX 01 02:01:08
  TRACK 92 AUDIO
    TITLE "19:cjc171_14846"
    INDEX 01 02:02:08
  TRACK 93 AUDIO
    TITLE "0:"
    INDEX 01 02:03:42
  TRACK 94 AUDIO
    TITLE "20:cjc171_14847"
    INDEX 01 02:04:12
  TRACK 95 AUDIO
    TITLE "0:"
    INDEX 01 02:05:49
  TRACK 96 AUDIO
    TITLE "21:cjc171_14848"
    INDEX 01 02:06:49
  TRACK 97 AUDIO
    TITLE "0:"
    INDEX 01 02:07:56
  TRACK 98 AUDIO
    TITLE "22:cjc171_14849"
    INDEX 01 02:08:16
  TRACK 99 AUDIO
    TITLE "0:"
    INDEX 01 02:10:33
  TRACK 100 AUDIO
    TITLE "23:cjc171_14850"
    INDEX 01 02:10:62
  TRACK 101 AUDIO
    TITLE "0:"
    INDEX 01 02:13:02
  TRACK 102 AUDIO
    TITLE "19:cjc171_14851"
    INDEX 01 02:14:03
  TRACK 103 AUDIO
    TITLE "0:"
    INDEX 01 02:14:74
  TRACK 104 AUDIO
    TITLE "20:cjc171_14852"
    INDEX 01 02:15:32
  TRACK 105 AUDIO
    TITLE "0:"
    INDEX 01 02:16:61
  TRACK 106 AUDIO
    TITLE "21:cjc171_14853"
    INDEX 01 02:17:60
  TRACK 107 AUDIO
    TITLE "0:"
    INDEX 01 02:20:08
  TRACK 108 AUDIO
    TITLE "22:cjc171_14854"
    INDEX 01 02:20:43
  TRACK 109 AUDIO
    TITLE "0:"
    INDEX 01 02:22:55
  TRACK 110 AUDIO
    TITLE "23:cjc171_14855"
    INDEX 01 02:22:75
  TRACK 111 AUDIO
    TITLE "0:"
    INDEX 01 02:25:13
  TRACK 112 AUDIO
    TITLE "19:cjc171_14856"
    INDEX 01 02:26:06
  TRACK 113 AUDIO
    TITLE "0:"
    INDEX 01 02:27:17
  TRACK 114 AUDIO
    TITLE "20:cjc171_14857"
    INDEX 01 02:27:53
  TRACK 115 AUDIO
    TITLE "0:"
    INDEX 01 02:29:26
  TRACK 116 AUDIO
    TITLE "21:cjc171_14858"
    INDEX 01 02:30:24
  TRACK 117 AUDIO
    TITLE "0:"
    INDEX 01 02:32:56
  TRACK 118 AUDIO
    TITLE "22:cjc171_14859"
    INDEX 01 02:33:16
  TRACK 119 AUDIO
    TITLE "0:"
    INDEX 01 02:35:11
  TRACK 120 AUDIO
    TITLE "23:cjc171_14860"
    INDEX 01 02:35:35
  TRACK 121 AUDIO
    TITLE "0:"
    INDEX 01 02:37:28
  TRACK 122 AUDIO
    TITLE "19:cjc171_14861"
    INDEX 01 02:38:29
  TRACK 123 AUDIO
    TITLE "0:"
    INDEX 01 02:39:46
  TRACK 124 AUDIO
    TITLE "20:cjc171_14862"
    INDEX 01 02:40:08
  TRACK 125 AUDIO
    TITLE "0:"
    INDEX 01 02:42:43
  TRACK 126 AUDIO
    TITLE "21:cjc171_14863"
    INDEX 01 02:43:42
  TRACK 127 AUDIO
    TITLE "0:"
    INDEX 01 02:44:75
  TRACK 128 AUDIO
    TITLE "22:cjc171_14864"
    INDEX 01 02:45:37
  TRACK 129 AUDIO
    TITLE "0:"
    INDEX 01 02:47:42
  TRACK 130 AUDIO
    TITLE "23:cjc171_14865"
    INDEX 01 02:47:71
  TRACK 131 AUDIO
    TITLE "0:"
    INDEX 01 02:50:01
  TRACK 132 AUDIO
    TITLE "19:cjc171_14866"
    INDEX 01 02:51:08
  TRACK 133 AUDIO
    TITLE "0:"
    INDEX 01 02:52:23
  TRACK 134 AUDIO
    TITLE "20:cjc171_14867"
    INDEX 01 02:52:62
  TRACK 135 AUDIO
    TITLE "0:"
    INDEX 01 02:55:35
  TRACK 136 AUDIO
    TITLE "21:cjc171_14868"
    INDEX 01 02:56:35
  TRACK 137 AUDIO
    TITLE "0:"
    INDEX 01 02:58:69
  TRACK 138 AUDIO
    TITLE "22:cjc171_14869"
    INDEX 01 02:59:31
  TRACK 139 AUDIO
    TITLE "0:"
    INDEX 01 03:01:40
  TRACK 140 AUDIO
    TITLE "23:cjc171_14870"
    INDEX 01 03:01:69
  TRACK 141 AUDIO
    TITLE "0:"
    INDEX 01 03:04:01
  TRACK 142 AUDIO
    TITLE "19:cjc171_14871"
    INDEX 01 03:05:04
  TRACK 143 AUDIO
    TITLE "0:"
    INDEX 01 03:06:02
  TRACK 144 AUDIO
    TITLE "20:cjc171_14872"
    INDEX 01 03:06:37
  TRACK 145 AUDIO
    TITLE "0:"
    INDEX 01 03:08:01
  TRACK 146 AUDIO
    TITLE "21:cjc171_14873"
    INDEX 01 03:08:75
  TRACK 147 AUDIO
    TITLE "0:"
    INDEX 01 03:11:03
  TRACK 148 AUDIO
    TITLE "22:cjc171_14874"
    INDEX 01 03:11:34
  TRACK 149 AUDIO
    TITLE "0:"
    INDEX 01 03:13:23
  TRACK 150 AUDIO
    TITLE "23:cjc171_14875"
    INDEX 01 03:13:45
  TRACK 151 AUDIO
    TITLE "0:"
    INDEX 01 03:15:32
  TRACK 152 AUDIO
    TITLE "19:cjc171_14876"
    INDEX 01 03:16:30
  TRACK 153 AUDIO
    TITLE "0:"
    INDEX 01 03:17:47
  TRACK 154 AUDIO
    TITLE "20:cjc171_14877"
    INDEX 01 03:18:13
  TRACK 155 AUDIO
    TITLE "0:"
    INDEX 01 03:20:24
  TRACK 156 AUDIO
    TITLE "21:cjc171_14878"
    INDEX 01 03:21:25
  TRACK 157 AUDIO
    TITLE "0:"
    INDEX 01 03:23:20
  TRACK 158 AUDIO
    TITLE "22:cjc171_14879"
    INDEX 01 03:23:63
  TRACK 159 AUDIO
    TITLE "0:"
    INDEX 01 03:25:66
  TRACK 160 AUDIO
    TITLE "23:cjc171_14880"
    INDEX 01 03:26:18
  TRACK 161 AUDIO
    TITLE "0:"
    INDEX 01 03:28:19
  TRACK 162 AUDIO
    TITLE "19:cjc171_14881"
    INDEX 01 03:29:21
  TRACK 163 AUDIO
    TITLE "0:"
    INDEX 01 03:30:43
  TRACK 164 AUDIO
    TITLE "20:cjc171_14882"
    INDEX 01 03:31:08
  TRACK 165 AUDIO
    TITLE "0:"
    INDEX 01 03:32:31
  TRACK 166 AUDIO
    TITLE "21:cjc171_14883"
    INDEX 01 03:33:20
  TRACK 167 AUDIO
    TITLE "0:"
    INDEX 01 03:35:25
  TRACK 168 AUDIO
    TITLE "22:cjc171_14884"
    INDEX 01 03:35:64
  TRACK 169 AUDIO
    TITLE "0:"
    INDEX 01 03:38:21
  TRACK 170 AUDIO
    TITLE "23:cjc171_14885"
    INDEX 01 03:38:53
  TRACK 171 AUDIO
    TITLE "0:"
    INDEX 01 03:41:10
  TRACK 172 AUDIO
    TITLE "19:cjc171_14886"
    INDEX 01 03:42:15
  TRACK 173 AUDIO
    TITLE "0:"
    INDEX 01 03:43:32
  TRACK 174 AUDIO
    TITLE "20:cjc171_14887"
    INDEX 01 03:44:01
  TRACK 175 AUDIO
    TITLE "0:"
    INDEX 01 03:45:49
  TRACK 176 AUDIO
    TITLE "21:cjc171_14888"
    INDEX 01 03:46:46
  TRACK 177 AUDIO
    TITLE "0:"
    INDEX 01 03:49:29
  TRACK 178 AUDIO
    TITLE "22:cjc171_14889"
    INDEX 01 03:49:70
  TRACK 179 AUDIO
    TITLE "0:"
    INDEX 01 03:52:41
  TRACK 180 AUDIO
    TITLE "23:cjc171_14890"
    INDEX 01 03:52:69
  TRACK 181 AUDIO
    TITLE "0:"
    INDEX 01 03:55:40
  TRACK 182 AUDIO
    TITLE "19:cjc171_14891"
    INDEX 01 03:56:45
  TRACK 183 AUDIO
    TITLE "0:"
    INDEX 01 03:57:58
  TRACK 184 AUDIO
    TITLE "20:cjc171_14892"
    INDEX 01 03:58:20
  TRACK 185 AUDIO
    TITLE "0:"
    INDEX 01 04:01:19
  TRACK 186 AUDIO
    TITLE "21:cjc171_14893"
    INDEX 01 04:02:18
  TRACK 187 AUDIO
    TITLE "0:"
    INDEX 01 04:04:40
  TRACK 188 AUDIO
    TITLE "22:cjc171_14894"
    INDEX 01 04:04:74
  TRACK 189 AUDIO
    TITLE "0:"
    INDEX 01 04:07:21
  TRACK 190 AUDIO
    TITLE "23:cjc171_14895"
    INDEX 01 04:07:39
  TRACK 191 AUDIO
    TITLE "0:"
    INDEX 01 04:09:59
  TRACK 192 AUDIO
    TITLE "19:cjc171_14896"
    INDEX 01 04:10:55
  TRACK 193 AUDIO
    TITLE "0:"
    INDEX 01 04:11:60
  TRACK 194 AUDIO
    TITLE "20:cjc171_14897"
    INDEX 01 04:12:22
  TRACK 195 AUDIO
    TITLE "0:"
    INDEX 01 04:14:33
  TRACK 196 AUDIO
    TITLE "21:cjc171_14898"
    INDEX 01 04:15:32
  TRACK 197 AUDIO
    TITLE "0:"
    INDEX 01 04:17:27
  TRACK 198 AUDIO
    TITLE "22:cjc171_14899"
    INDEX 01 04:17:67
  TRACK 199 AUDIO
    TITLE "0:"
    INDEX 01 04:20:10
  TRACK 200 AUDIO
    TITLE "23:cjc171_14900"
    INDEX 01 04:20:39
  TRACK 201 AUDIO
    TITLE "0:"
    INDEX 01 04:22:56
